<svg id="Capa_1" enable-background="new 0 0 512 512" height="512" viewBox="0 0 512 512" width="512" xmlns="http://www.w3.org/2000/svg"><path d="m42.155 251.307c-3.056-7.403-1.271-15.911 4.504-21.461 24.302-23.355 59.351-34.683 94.826-27.238 39.945 8.383 69.825 38.343 80.023 75.137-24.13 29.59-63.534 45.009-103.479 36.625-35.474-7.445-63.012-31.909-75.874-63.063z" fill="#4f4c5e"/><path d="m251.307 42.155c-7.403-3.056-15.911-1.271-21.461 4.504-23.355 24.302-34.683 59.351-27.238 94.826 8.383 39.945 38.343 69.825 75.137 80.023 29.59-24.13 45.009-63.534 36.625-103.479-7.445-35.474-31.909-63.012-63.063-75.874z" fill="#4f4c5e"/><path d="m201.274 105.768c-1.557 11.584-1.205 23.625 1.333 35.717 8.383 39.944 38.343 69.825 75.137 80.023 29.59-24.13 45.009-63.535 36.625-103.479-1.905-9.078-4.931-17.631-8.891-25.556-9.639-1.523-19.463-2.312-29.41-2.312-26.178 0-51.527 5.38-74.794 15.607z" fill="#423e4f"/><path d="m141.485 202.607c-12.092-2.538-24.133-2.89-35.717-1.333-10.227 23.267-15.607 48.616-15.607 74.794 0 9.946.789 19.771 2.312 29.409 7.925 3.961 16.479 6.987 25.556 8.892 39.945 8.383 79.349-7.036 103.479-36.625-10.198-36.794-40.078-66.753-80.023-75.137z" fill="#423e4f"/><path d="m269.324 177.35c-17.063-10.083-29.372-26.916-33.571-46.927-3.486-16.608-.973-33.555 6.732-48.128 2.567-4.856 8.949-6.199 13.251-2.783 12.84 10.196 21.986 24.676 25.489 41.369 4.174 19.889-.258 40.268-11.901 56.469z" fill="#ffa1ac"/><path d="m177.35 269.324c-10.083-17.063-26.916-29.372-46.927-33.571-16.608-3.486-33.555-.973-48.128 6.732-4.856 2.567-6.199 8.949-2.783 13.251 10.196 12.84 24.676 21.986 41.369 25.489 19.889 4.174 40.268-.258 56.469-11.901z" fill="#ffa1ac"/><path d="m363.174 9.281c-5.395.838-8.809 6.239-7.278 11.48 19.865 68.009-21.707 105.23-21.707 105.23l67.633 49.333c16.195-18.746 34.359-17.888 44.781-15.171 3.547.925 6.874-2.067 6.403-5.702-3.163-24.425 17.382-45.296 44.958-37.493 3.72 1.053 7.23-2.298 6.418-6.077-23.592-109.823-110.993-106.294-141.208-101.6z" fill="#4f4c5e"/><path d="m9.281 363.174c.838-5.395 6.239-8.809 11.48-7.278 68.009 19.865 105.23-21.707 105.23-21.707l49.333 67.633c-18.746 16.195-17.888 34.359-15.171 44.781.925 3.547-2.067 6.874-5.702 6.403-24.425-3.163-45.296 17.382-37.493 44.958 1.053 3.72-2.298 7.23-6.077 6.418-109.823-23.592-106.294-110.993-101.6-141.208z" fill="#4f4c5e"/><path d="m414.167 144.184-3.107-3.107c-17.366-17.367-37.495-30.962-59.388-40.404-7.789 16.636-17.483 25.318-17.483 25.318l67.633 49.333c8.483-9.819 17.505-14.254 25.673-15.866-4.061-5.341-8.502-10.448-13.328-15.274z" fill="#423e4f"/><path d="m100.672 351.673c9.442 21.893 23.038 42.021 40.404 59.387l3.106 3.106c4.826 4.826 9.933 9.268 15.275 13.329 1.612-8.168 6.047-17.19 15.866-25.673l-49.333-67.632c.001-.001-8.681 9.694-25.318 17.483z" fill="#423e4f"/><path d="m266.732 90.391c-9.899.486-19.652 1.757-29.197 3.759-3.649 11.547-4.358 24.001-1.782 36.273 4.199 20.011 16.508 36.843 33.571 46.926 11.643-16.201 16.075-36.58 11.901-56.469-2.397-11.42-7.438-21.803-14.493-30.489z" fill="#ff6e80"/><path d="m130.423 235.753c-12.272-2.576-24.726-1.867-36.273 1.782-2.002 9.545-3.273 19.298-3.759 29.197 8.686 7.056 19.069 12.096 30.49 14.493 19.889 4.175 40.268-.257 56.469-11.901-10.084-17.063-26.916-29.373-46.927-33.571z" fill="#ff6e80"/><path d="m162.29 162.29c-62.838 62.838-62.838 164.719 0 227.557l3.106 3.106c45.94 45.94 120.424 45.94 166.364 0l61.193-61.193c45.94-45.94 45.94-120.424 0-166.364l-3.106-3.106c-62.838-62.838-164.719-62.838-227.557 0z" fill="#996acc"/><ellipse cx="228.664" cy="359.191" fill="#ffa1ac" rx="34.056" ry="27.12" transform="matrix(.707 -.707 .707 .707 -187.012 266.894)"/><ellipse cx="359.191" cy="228.664" fill="#ffa1ac" rx="34.056" ry="27.12" transform="matrix(.707 -.707 .707 .707 -56.485 320.962)"/><path d="m217.88 290.927c-2.376-3.393-7.053-4.218-10.445-1.842l-20.069 14.052c-3.393 2.376-4.218 7.053-1.842 10.445 2.379 3.399 7.059 4.215 10.445 1.842l20.069-14.052c3.393-2.376 4.218-7.052 1.842-10.445z"/><path d="m313.581 185.526c-3.394-2.376-8.07-1.552-10.445 1.842l-14.053 20.069c-3.512 5.015.166 11.802 6.137 11.802 2.364 0 4.691-1.115 6.15-3.199l14.053-20.069c2.376-3.393 1.551-8.07-1.842-10.445z"/><path d="m258.847 294.941c-2.929-2.929-7.678-2.929-10.606 0-2.929 2.929-2.929 7.678 0 10.607 15.005 15.005 40.39 4.546 40.947-16.332 21.007-.529 31.217-26.115 16.359-40.974-2.929-2.929-7.678-2.929-10.606 0-2.929 2.929-2.929 7.678 0 10.606 3.521 3.521 3.522 9.221 0 12.744-3.523 3.522-9.221 3.521-12.743 0-2.929-2.929-7.678-2.929-10.606 0-2.929 2.929-2.929 7.678 0 10.607 3.513 3.513 3.513 9.23 0 12.744-3.523 3.518-9.224 3.52-12.745-.002z"/><path d="m218.854 331.919c1.465 1.465 3.384 2.197 5.304 2.197 6.621 0 10.041-8.065 5.303-12.804l-9.692-9.691c-2.929-2.929-7.677-2.929-10.606 0s-2.929 7.678 0 10.607z"/><path d="m311.619 219.771 9.692 9.691c2.927 2.928 7.677 2.929 10.606 0s2.929-7.678 0-10.607l-9.692-9.692c-2.929-2.929-7.677-2.929-10.606 0-2.928 2.93-2.928 7.678 0 10.608z"/><path d="m454.927 99.584c2.213 3.476 6.844 4.534 10.354 2.3 3.494-2.224 4.524-6.86 2.301-10.354-17.704-27.819-41.998-45.416-72.206-52.304-4.039-.92-8.059 1.606-8.979 5.645-.921 4.038 1.606 8.059 5.645 8.979 26.219 5.98 47.377 21.366 62.885 45.734z"/><path d="m389.186 92.05c-3.837-1.561-8.212.286-9.772 4.123-1.561 3.837.285 8.212 4.123 9.772 14.66 5.961 27.505 15.453 38.178 28.212 2.666 3.187 7.397 3.591 10.565.94 3.177-2.658 3.598-7.388.94-10.565-12.264-14.66-27.079-25.588-44.034-32.482z"/><path d="m99.582 454.928c-24.367-15.508-39.754-36.666-45.733-62.886-.92-4.038-4.942-6.565-8.979-5.645-4.038.921-6.565 4.941-5.644 8.98 6.888 30.208 24.485 54.501 52.303 72.205 1.249.795 2.643 1.174 4.02 1.174 7.477 0 10.351-9.807 4.033-13.828z"/><path d="m134.155 421.716c-12.759-10.673-22.251-23.518-28.212-38.178-1.56-3.837-5.935-5.683-9.772-4.123s-5.683 5.935-4.123 9.772c6.894 16.955 17.823 31.771 32.483 44.034 1.404 1.174 3.111 1.748 4.808 1.748 6.953 0 10.212-8.739 4.816-13.253z"/><path d="m511.707 109.302c-10.769-50.13-35.5-83.599-73.506-99.477-3.822-1.597-8.214.207-9.811 4.029s.208 8.215 4.029 9.811c32.303 13.495 53.758 42.136 63.808 85.152-29.555-6.06-52.559 15.899-50.972 43.338-10.575-2.062-27.259-1.983-43.049 12.078-17.155-18.808-35.995-32.101-55.463-41.111 19.971-25.799 28.488-62.892 16.345-104.466-.263-.904.314-1.824 1.23-1.966 9.53-1.481 24.376-2.748 40.983-.371 4.102.586 7.9-2.262 8.486-6.362.587-4.101-2.262-7.9-6.362-8.487-18.437-2.638-34.871-1.24-45.41.397-9.839 1.528-16.132 11.384-13.326 20.993 7.646 26.177 6.714 50.507-2.77 72.314-4.647 10.685-10.317 18.12-13.723 22.028-3.662-1.291-7.369-2.46-11.121-3.494-8.35-35.352-33.181-64.563-66.912-78.488-10.324-4.263-21.993-1.813-29.731 6.239-22.762 23.686-33.96 55.457-31.166 87.873-26.342 14.917-48.723 37.097-63.864 63.94-32.44-2.815-64.24 8.381-87.942 31.16-8.052 7.738-10.502 19.408-6.24 29.731 13.942 33.771 43.206 58.62 78.614 66.941 1.023 3.709 2.17 7.392 3.452 11.037-9.781 8.558-42.362 31.755-94.425 16.548-9.575-2.797-19.461 3.454-20.993 13.326-2.457 15.813-4.635 46.869 8.374 77.195 16.059 37.434 49.387 61.825 99.06 72.495 9.329 2.005 17.455-6.654 14.869-15.793-6.253-22.1 9.919-37.99 29.313-35.478 8.889 1.151 16.19-7.034 13.923-15.733-2.27-8.709-2.369-21.12 8.517-33.037 15.677 11.218 33.69 18.631 53.024 21.686 4.094.645 7.932-2.146 8.579-6.237.646-4.091-2.146-7.932-6.236-8.579-26.172-4.141-48.439-17.871-66.471-36.842-96.808-101.881-15.849-273.451 127.85-258.144 36.019 3.928 69.14 19.753 97.099 49.33 41.032 43.445 39.862 111.587-2.123 153.572l-61.193 61.192c-18.028 18.028-41.906 29.302-67.236 31.745-4.123.398-7.143 4.062-6.745 8.185.398 4.128 4.074 7.148 8.185 6.745 28.786-2.777 55.919-15.586 76.402-36.069l61.193-61.192c43.809-43.809 48.272-112.283 13.409-161.129 11.92-10.892 24.334-10.794 33.044-8.523 8.69 2.265 16.885-5.023 15.733-13.923-2.479-19.143 13.127-35.637 35.477-29.312 4.288 1.213 8.794.11 12.057-2.95 3.28-3.074 4.677-7.529 3.735-11.917zm-403.915 159.629c-8.71-4.157-16.343-10.221-22.411-17.863-.495-.623-.3-1.579.415-1.957 7.879-4.165 16.503-6.614 25.336-7.235-1.843 8.909-2.959 17.957-3.34 27.055zm-58.707-20.49c-1.891-4.58-.805-9.759 2.769-13.192 18.84-18.106 43.815-28.014 70.181-27.381-2.729 6.162-5.068 12.461-7.027 18.86-12.617.098-25.028 3.204-36.221 9.122-9.029 4.774-11.47 16.588-5.152 24.546 8.992 11.324 20.76 19.83 34.263 24.842.354 6.442 1.072 12.883 2.17 19.293-27.45-8.702-49.848-29.118-60.983-56.09zm115.149 153.767c-14.062 15.792-14.14 32.475-12.078 43.049-27.351-1.587-49.414 21.341-43.339 50.971-42.626-9.959-71.144-31.118-84.79-62.929-11.531-26.882-9.547-54.756-7.337-68.979.139-.897 1.043-1.501 1.966-1.231 41.592 12.148 78.69 3.626 104.499-16.369 9.616 20.859 23.833 39.849 41.079 55.488zm71.014-350.354c3.452-3.591 8.632-4.65 13.192-2.769 26.964 11.132 47.375 33.517 56.081 60.959-5.913-1-12.617-1.778-19.284-2.146-5.011-13.503-13.518-25.271-24.841-34.262-7.966-6.327-19.778-3.869-24.546 5.151-5.912 11.182-9.017 23.577-9.122 36.179-6.429 1.96-12.726 4.302-18.861 7.02-.631-25.971 9.061-51.068 27.381-70.132zm6.627 59.266c.623-8.829 3.071-17.447 7.235-25.322.371-.703 1.322-.919 1.957-.415 7.642 6.068 13.705 13.7 17.863 22.41-9.274.388-18.318 1.536-27.055 3.327z"/></svg>